<?xml version="1.0" encoding="UTF-8" standalone="no"?>
<!DOCTYPE svg PUBLIC "-//W3C//DTD SVG 1.1//EN"
 "http://www.w3.org/Graphics/SVG/1.1/DTD/svg11.dtd">
<!-- Generated by graphviz version 2.36.0 (20140111.2315)
 -->
<!-- Title: G Pages: 1 -->
<svg width="226pt" height="95pt"
 viewBox="0.00 0.00 226.00 95.00" xmlns="http://www.w3.org/2000/svg" xmlns:xlink="http://www.w3.org/1999/xlink">
<g id="graph0" class="graph" transform="scale(1 1) rotate(0) translate(4 91)">
<title>G</title>
<polygon fill="white" stroke="none" points="-4,4 -4,-91 222,-91 222,4 -4,4"/>
<g id="clust1" class="cluster"><title>cluster_Global</title>
<path fill="none" stroke="gray" d="M130,-8C130,-8 198,-8 198,-8 204,-8 210,-14 210,-20 210,-20 210,-67 210,-67 210,-73 204,-79 198,-79 198,-79 130,-79 130,-79 124,-79 118,-73 118,-67 118,-67 118,-20 118,-20 118,-14 124,-8 130,-8"/>
<text text-anchor="middle" x="164" y="-66.2" font-family="Times,serif" font-size="11.00" fill="gray">Global</text>
</g>
<!-- \\equipment -->
<g id="node1" class="node"><title>\\equipment</title>
<polygon fill="none" stroke="black" points="201.911,-52 126.089,-52 126.089,-16 201.911,-16 201.911,-52"/>
<text text-anchor="middle" x="164" y="-30.7" font-family="Courier,monospace" font-size="11.00">equipment</text>
</g>
<!-- \\adb -->
<g id="node2" class="node"><title>\\adb</title>
<ellipse fill="none" stroke="black" cx="27" cy="-34" rx="27" ry="18"/>
<text text-anchor="middle" x="27" y="-29.8" font-family="Times,serif" font-size="14.00" fill="gray">\adb</text>
</g>
<!-- \\equipment&#45;&gt;\\adb -->
<g id="edge1" class="edge"><title>\\equipment&#45;&gt;\\adb</title>
<path fill="none" stroke="black" d="M126.111,-34C106.877,-34 83.4354,-34 64.2899,-34"/>
<polygon fill="none" stroke="black" points="64.1494,-30.5001 54.1494,-34 64.1493,-37.5001 64.1494,-30.5001"/>
</g>
</g>
</svg>
