<?xml version="1.0" encoding="UTF-8" standalone="no"?>
<!DOCTYPE svg PUBLIC "-//W3C//DTD SVG 1.1//EN"
 "http://www.w3.org/Graphics/SVG/1.1/DTD/svg11.dtd">
<!-- Generated by graphviz version 2.36.0 (20140111.2315)
 -->
<!-- Title: G Pages: 1 -->
<svg width="242pt" height="95pt"
 viewBox="0.00 0.00 242.00 95.00" xmlns="http://www.w3.org/2000/svg" xmlns:xlink="http://www.w3.org/1999/xlink">
<g id="graph0" class="graph" transform="scale(1 1) rotate(0) translate(4 91)">
<title>G</title>
<polygon fill="white" stroke="none" points="-4,4 -4,-91 238,-91 238,4 -4,4"/>
<g id="clust1" class="cluster"><title>cluster_Global</title>
<path fill="none" stroke="gray" d="M20,-8C20,-8 214,-8 214,-8 220,-8 226,-14 226,-20 226,-20 226,-67 226,-67 226,-73 220,-79 214,-79 214,-79 20,-79 20,-79 14,-79 8,-73 8,-67 8,-67 8,-20 8,-20 8,-14 14,-8 20,-8"/>
<text text-anchor="middle" x="117" y="-66.2" font-family="Times,serif" font-size="11.00" fill="gray">Global</text>
</g>
<!-- \\adb -->
<g id="node1" class="node"><title>\\adb</title>
<polygon fill="none" stroke="black" points="70,-52 16,-52 16,-16 70,-16 70,-52"/>
<text text-anchor="middle" x="43" y="-30.7" font-family="Courier,monospace" font-size="11.00">adb</text>
</g>
<!-- \\equipment -->
<g id="node2" class="node"><title>\\equipment</title>
<polygon fill="none" stroke="black" points="217.911,-52 142.089,-52 142.089,-16 217.911,-16 217.911,-52"/>
<text text-anchor="middle" x="180" y="-30.7" font-family="Courier,monospace" font-size="11.00">equipment</text>
</g>
<!-- \\equipment&#45;&gt;\\adb -->
<g id="edge1" class="edge"><title>\\equipment&#45;&gt;\\adb</title>
<path fill="none" stroke="black" d="M142.111,-34C122.877,-34 99.4354,-34 80.2899,-34"/>
<polygon fill="none" stroke="black" points="80.1494,-30.5001 70.1494,-34 80.1493,-37.5001 80.1494,-30.5001"/>
</g>
</g>
</svg>
